<svg version="1.1" xmlns="http://www.w3.org/2000/svg" xmlns:xlink="http://www.w3.org/1999/xlink" width="1205" height="378" viewBox="0 0 1205 378"><defs/><g transform="matrix(1,0,0,1,0,0)"><g><g><g><path fill="none" stroke="#d3d3d3" paint-order="fill stroke markers" d=" M 0 0 L 1200 0" stroke-miterlimit="10" stroke-opacity="0.8" stroke-dasharray="5"/></g><g><path fill="none" stroke="#d3d3d3" paint-order="fill stroke markers" d=" M 0 0 L 0 800" stroke-miterlimit="10" stroke-opacity="0.8" stroke-dasharray="5"/></g></g><g id="_FADA758E-ACE3-4803-A18D-77E2684E8C2A" bpmn2nodeid="_FADA758E-ACE3-4803-A18D-77E2684E8C2A" transform="matrix(1,0,0,1,357,113)"><g><path fill="none" stroke="none"/></g><g transform="matrix(1,0,0,1,0,0)"><path fill="#ffffff" stroke="none" id="_FADA758E-ACE3-4803-A18D-77E2684E8C2A?shapeType=BACKGROUND" paint-order="stroke fill markers" d=" M 2 0 L 152 0 L 152 0 A 2 2 0 0 1 154 2 L 154 100 L 154 100 A 2 2 0 0 1 152 102 L 2 102 L 2 102 A 2 2 0 0 1 0 100 L 0 2 L 0 2.0000000000000004 A 2 2 0 0 1 1.9999999999999996 0 Z"/></g><g transform="matrix(1,0,0,1,0,0)"><path fill="none" stroke="rgb(0,136,206)" id="_FADA758E-ACE3-4803-A18D-77E2684E8C2A?shapeType=BORDER&amp;renderType=STROKE" paint-order="fill stroke markers" d=" M 2 0 L 152 0 L 152 0 A 2 2 0 0 1 154 2 L 154 100 L 154 100 A 2 2 0 0 1 152 102 L 2 102 L 2 102 A 2 2 0 0 1 0 100 L 0 2 L 0 2.0000000000000004 A 2 2 0 0 1 1.9999999999999996 0 Z" stroke-miterlimit="10" stroke-width="1.5" stroke-dasharray=""/></g><g><g transform="matrix(0.06,0,0,0.06,9.4,9.4)"><g transform="matrix(1,0,0,1,0,0)"><path fill="#393f44" stroke="none" id="_FADA758E-ACE3-4803-A18D-77E2684E8C2Aundefined" paint-order="stroke fill markers" d=" M 0 0 M 128 344 L 128 296 C 128 293.7 127.2 291.8 125.8 290.2 C 124.39999999999999 288.59999999999997 122.39999999999999 288 120 288 L 40 288 C 37.7 288 35.8 288.8 34.2 290.2 C 32.60000000000001 291.59999999999997 32 293.7 32 296 L 32 344 C 32 346.3 32.8 348.2 34.2 349.8 C 35.60000000000001 351.40000000000003 37.6 352 40 352 L 120 352 C 122.3 352 124.2 351.2 125.8 349.8 C 127.39999999999999 348.40000000000003 128 346.3 128 344 Z M 0 0 M 128 248 L 128 200 C 128 197.7 127.2 195.8 125.8 194.2 C 124.39999999999999 192.59999999999997 122.39999999999999 192 120 192 L 40 192 C 37.7 192 35.8 192.8 34.2 194.2 C 32.60000000000001 195.59999999999997 32 197.7 32 200 L 32 248 C 32 250.3 32.8 252.2 34.2 253.8 C 35.60000000000001 255.40000000000003 37.6 256 40 256 L 120 256 C 122.3 256 124.2 255.2 125.8 253.8 C 127.39999999999999 252.40000000000003 128 250.3 128 248 Z M 0 0 M 376 352 C 378.3 352 380.2 351.2 381.8 349.8 C 383.40000000000003 348.40000000000003 384 346.40000000000003 384 344 L 384 296 C 384 293.7 383.2 291.8 381.8 290.2 C 380.40000000000003 288.59999999999997 378.40000000000003 288 376 288 L 168 288 C 165.7 288 163.8 288.8 162.2 290.2 C 160.59999999999997 291.59999999999997 160 293.59999999999997 160 296 L 160 344 C 160 346.3 160.8 348.2 162.2 349.8 C 163.59999999999997 351.40000000000003 165.6 352 168 352 L 376 352 Z M 0 0 M 128 152 L 128 104 C 128 101.7 127.2 99.8 125.8 98.2 C 124.39999999999999 96.60000000000001 122.3 96 120 96 L 40 96 C 37.7 96 35.8 96.8 34.2 98.2 C 32.60000000000001 99.60000000000001 32 101.7 32 104 L 32 152 C 32 154.3 32.8 156.2 34.2 157.8 C 35.60000000000001 159.40000000000003 37.6 160 40 160 L 120 160 C 122.3 160 124.2 159.2 125.8 157.8 C 127.39999999999999 156.40000000000003 128 154.3 128 152 Z M 0 0 M 376 256 C 378.3 256 380.2 255.2 381.8 253.8 C 383.40000000000003 252.40000000000003 384 250.4 384 248 L 384 200 C 384 197.7 383.2 195.8 381.8 194.2 C 380.40000000000003 192.59999999999997 378.40000000000003 192 376 192 L 168 192 C 165.7 192 163.8 192.8 162.2 194.2 C 160.59999999999997 195.59999999999997 160 197.6 160 200 L 160 248 C 160 250.3 160.8 252.2 162.2 253.8 C 163.59999999999997 255.40000000000003 165.6 256 168 256 L 376 256 Z M 0 0 M 376 160 C 378.3 160 380.2 159.2 381.8 157.8 C 383.40000000000003 156.40000000000003 384 154.4 384 152 L 384 104 C 384 101.7 383.2 99.8 381.8 98.2 C 380.40000000000003 96.60000000000001 378.3 96 376 96 L 168 96 C 165.7 96 163.8 96.8 162.2 98.2 C 160.59999999999997 99.60000000000001 160 101.60000000000001 160 104 L 160 152 C 160 154.3 160.8 156.2 162.2 157.8 C 163.59999999999997 159.40000000000003 165.6 160 168 160 L 376 160 Z M 0 0 M 416 72 L 416 344 C 416 355 412.1 364.4 404.2 372.2 C 396.29999999999995 380 387 384 376 384 L 40 384 C 29 384 19.6 380.1 11.8 372.2 C 4 364.29999999999995 0 355 0 344 L 0 72 C 0 61 3.9 51.6 11.8 43.8 C 19.700000000000003 35.99999999999999 29 32 40 32 L 376 32 C 387 32 396.4 35.9 404.2 43.8 C 412 51.699999999999996 416 61 416 72 Z"/></g></g></g><g transform="matrix(1,0,0,1,35,36)"><text fill="#000000" stroke="none" font-family="Open Sans" font-size="12pt" font-style="normal" font-weight="normal" text-decoration="normal" x="57.71484375" y="12" text-anchor="middle" dominant-baseline="alphabetic">DuplicateCheck</text></g></g><g id="_35ECD006-B324-4DEC-BA3A-358083D8C5A7" bpmn2nodeid="_35ECD006-B324-4DEC-BA3A-358083D8C5A7" transform="matrix(1,0,0,1,555,136)"><g><path fill="none" stroke="none"/></g><g transform="matrix(0.125,0,0,0.125,0,0)"><g transform="matrix(1,0,0,1,0,0)"><path fill="#fce7e7" stroke="none" id="_35ECD006-B324-4DEC-BA3A-358083D8C5A7?shapeType=BACKGROUND" paint-order="stroke fill markers" d=" M 0 0 M 444 224 C 444 263.9 434.2 300.8 414.4 334.5 C 394.7 368.2 368 394.9 334.4 414.5 C 300.79999999999995 434.1 263.9 444 224 444 C 184.10000000000002 444 147.2 434.2 113.5 414.4 C 79.8 394.7 53.1 368 33.5 334.4 C 13.899999999999999 300.79999999999995 4 263.9 4 224 C 4 184.10000000000002 13.8 147.2 33.6 113.5 C 53.400000000000006 79.80000000000001 80.1 53.1 113.6 33.5 C 147.1 13.899999999999999 184.1 4 224 4 C 263.9 4 300.8 13.8 334.5 33.6 C 368.2 53.400000000000006 394.9 80.1 414.5 113.6 C 434.1 147.1 444 184.1 444 224 Z"/></g><g><g transform="matrix(1,0,0,1,0,0)"><g transform="matrix(1,0,0,1,0,0)"><path fill="#a30000" stroke="none" id="_35ECD006-B324-4DEC-BA3A-358083D8C5A7?shapeType=BORDER&amp;renderType=FILL" paint-order="stroke fill markers" d=" M 0 0 M 224 0 C 100.3 0 0 100.3 0 224 C 0 347.7 100.3 448 224 448 C 347.7 448 448 347.7 448 224 C 448 100.30000000000001 347.7 0 224 0 Z M 0 0 M 224 400 C 126.8 400 48 321.2 48 224 C 48 126.80000000000001 126.8 48 224 48 C 321.2 48 400 126.8 400 224 C 400 321.2 321.2 400 224 400 Z"/></g></g></g></g><g transform="matrix(1,0,0,1,28,61)"/></g><g id="_0A0BC3F4-9832-41AC-A6D4-555232A88350" bpmn2nodeid="_0A0BC3F4-9832-41AC-A6D4-555232A88350" transform="matrix(1,0,0,1,1099,249)"><g><path fill="none" stroke="none"/></g><g transform="matrix(0.125,0,0,0.125,0,0)"><g transform="matrix(1,0,0,1,0,0)"><path fill="#fce7e7" stroke="none" id="_0A0BC3F4-9832-41AC-A6D4-555232A88350?shapeType=BACKGROUND" paint-order="stroke fill markers" d=" M 0 0 M 444 224 C 444 263.9 434.2 300.8 414.4 334.5 C 394.7 368.2 368 394.9 334.4 414.5 C 300.79999999999995 434.1 263.9 444 224 444 C 184.10000000000002 444 147.2 434.2 113.5 414.4 C 79.8 394.7 53.1 368 33.5 334.4 C 13.899999999999999 300.79999999999995 4 263.9 4 224 C 4 184.10000000000002 13.8 147.2 33.6 113.5 C 53.400000000000006 79.80000000000001 80.1 53.1 113.6 33.5 C 147.1 13.899999999999999 184.1 4 224 4 C 263.9 4 300.8 13.8 334.5 33.6 C 368.2 53.400000000000006 394.9 80.1 414.5 113.6 C 434.1 147.1 444 184.1 444 224 Z"/></g><g><g transform="matrix(1,0,0,1,0,0)"><g transform="matrix(1,0,0,1,0,0)"><path fill="#a30000" stroke="none" id="_0A0BC3F4-9832-41AC-A6D4-555232A88350?shapeType=BORDER&amp;renderType=FILL" paint-order="stroke fill markers" d=" M 0 0 M 224 0 C 100.3 0 0 100.3 0 224 C 0 347.7 100.3 448 224 448 C 347.7 448 448 347.7 448 224 C 448 100.30000000000001 347.7 0 224 0 Z M 0 0 M 224 400 C 126.8 400 48 321.2 48 224 C 48 126.80000000000001 126.8 48 224 48 C 321.2 48 400 126.8 400 224 C 400 321.2 321.2 400 224 400 Z"/></g></g></g></g><g transform="matrix(1,0,0,1,28,61)"/></g><g id="_3AA8324D-73D0-4A92-9052-4F8B5EDD8106" bpmn2nodeid="_3AA8324D-73D0-4A92-9052-4F8B5EDD8106" transform="matrix(1,0,0,1,83,136)"><g><path fill="none" stroke="none"/></g><g transform="matrix(0.125,0,0,0.125,0,0)"><g transform="matrix(1,0,0,1,0,0)"><path fill="#e8fae6" stroke="none" id="_3AA8324D-73D0-4A92-9052-4F8B5EDD8106?shapeType=BACKGROUND" paint-order="stroke fill markers" d=" M 0 0 M 444 224 C 444 263.9 434.2 300.8 414.4 334.5 C 394.7 368.2 368 394.9 334.4 414.5 C 300.79999999999995 434.1 263.9 444 224 444 C 184.10000000000002 444 147.2 434.2 113.5 414.4 C 79.8 394.7 53.1 368 33.5 334.4 C 13.899999999999999 300.79999999999995 4 263.9 4 224 C 4 184.10000000000002 13.8 147.2 33.6 113.5 C 53.400000000000006 79.80000000000001 80.1 53.1 113.6 33.5 C 147.1 13.899999999999999 184.1 4 224 4 C 263.9 4 300.8 13.8 334.5 33.6 C 368.2 53.400000000000006 394.9 80.1 414.5 113.6 C 434.1 147.1 444 184.1 444 224 Z"/></g><g><g transform="matrix(1,0,0,1,0,0)"><g transform="matrix(1,0,0,1,0,0)"><path fill="#4aa241" stroke="none" id="_3AA8324D-73D0-4A92-9052-4F8B5EDD8106?shapeType=BORDER&amp;renderType=FILL" paint-order="stroke fill markers" d=" M 0 0 M 224 0 C 100.3 0 0 100.3 0 224 C 0 347.7 100.3 448 224 448 C 347.7 448 448 347.7 448 224 C 448 100.30000000000001 347.7 0 224 0 Z M 0 0 M 224 432 C 109.1 432 16 338.9 16 224 C 16 109.10000000000002 109.1 16 224 16 C 338.9 16 432 109.1 432 224 C 432 338.9 338.9 432 224 432 Z"/></g></g></g></g><g transform="matrix(1,0,0,1,28,61)"/></g><g id="_A41101CA-DB30-4DEA-8C23-678DA8CB002C" bpmn2nodeid="_A41101CA-DB30-4DEA-8C23-678DA8CB002C" transform="matrix(1,0,0,1,729,249)"><g><path fill="none" stroke="none"/></g><g transform="matrix(0.125,0,0,0.125,0,0)"><g transform="matrix(1,0,0,1,0,0)"><path fill="#e8fae6" stroke="none" id="_A41101CA-DB30-4DEA-8C23-678DA8CB002C?shapeType=BACKGROUND" paint-order="stroke fill markers" d=" M 0 0 M 444 224 C 444 263.9 434.2 300.8 414.4 334.5 C 394.7 368.2 368 394.9 334.4 414.5 C 300.79999999999995 434.1 263.9 444 224 444 C 184.10000000000002 444 147.2 434.2 113.5 414.4 C 79.8 394.7 53.1 368 33.5 334.4 C 13.899999999999999 300.79999999999995 4 263.9 4 224 C 4 184.10000000000002 13.8 147.2 33.6 113.5 C 53.400000000000006 79.80000000000001 80.1 53.1 113.6 33.5 C 147.1 13.899999999999999 184.1 4 224 4 C 263.9 4 300.8 13.8 334.5 33.6 C 368.2 53.400000000000006 394.9 80.1 414.5 113.6 C 434.1 147.1 444 184.1 444 224 Z"/></g><g><g transform="matrix(1,0,0,1,0,0)"><g transform="matrix(1,0,0,1,0,0)"><path fill="#4aa241" stroke="none" id="_A41101CA-DB30-4DEA-8C23-678DA8CB002C?shapeType=BORDER&amp;renderType=FILL" paint-order="stroke fill markers" d=" M 0 0 M 224 0 C 100.3 0 0 100.3 0 224 C 0 347.7 100.3 448 224 448 C 347.7 448 448 347.7 448 224 C 448 100.30000000000001 347.7 0 224 0 Z M 0 0 M 224 432 C 109.1 432 16 338.9 16 224 C 16 109.10000000000002 109.1 16 224 16 C 338.9 16 432 109.1 432 224 C 432 338.9 338.9 432 224 432 Z"/></g></g></g><g><g transform="matrix(1,0,0,1,0,0)"><g transform="matrix(1,0,0,1,0,0)"><path fill="#4aa241" stroke="none" id="_A41101CA-DB30-4DEA-8C23-678DA8CB002Cundefined" paint-order="stroke fill markers" d=" M 0 0 M 177 155.9 C 191.8 170.8 222.6 202.2 244.8 224.7 L 255.3 235.39999999999998 L 266.6 225.59999999999997 L 298.20000000000005 198.19999999999996 C 285.80000000000007 232.69999999999996 273.00000000000006 268.09999999999997 266.70000000000005 285.09999999999997 L 204 217.4 L 193.6 206.20000000000002 L 181.9 216.20000000000002 L 148 245.20000000000002 C 159.3 210.1 171.3 173.4 177 155.9 M 173.5 132.7 C 172.8 132.7 172.1 132.79999999999998 171.3 133.1 C 168 134.29999999999998 167.5 135.9 165.60000000000002 139.9 C 164.00000000000003 143.3 120.40000000000002 278.3 120.40000000000002 278.3 C 120.40000000000002 278.3 119.10000000000002 282.8 122.90000000000002 284.40000000000003 C 123.50000000000001 284.70000000000005 124.10000000000002 284.8 124.70000000000002 284.8 C 127.50000000000001 284.8 129.4 282.2 129.4 282.2 L 192.3 228.29999999999998 L 263.9 305.4 C 266 307.4 267.9 308.7 270.09999999999997 308.7 C 270.79999999999995 308.7 271.49999999999994 308.5 272.29999999999995 308.3 C 275.59999999999997 307.1 276.4 305.1 277.99999999999994 301.5 C 279.49999999999994 298.1 328.09999999999997 163.1 328.09999999999997 163.1 C 328.09999999999997 163.1 329.4 158.6 325.7 157 C 325.09999999999997 156.7 324.5 156.6 323.8 156.6 C 321 156.6 319.2 159.2 319.2 159.2 L 256.3 213.5 C 256.3 213.5 182.70000000000002 138.6 179.8 136 C 177.6 134 175.7 132.7 173.5 132.7 L 173.5 132.7 Z"/></g></g></g></g><g transform="matrix(1,0,0,1,28,61)"/></g><g id="_3DED9E62-C0A0-4A12-9432-E642AC170752" bpmn2nodeid="_3DED9E62-C0A0-4A12-9432-E642AC170752" transform="matrix(1,0,0,1,177,119)"><g><path fill="none" stroke="none"/></g><g transform="matrix(1,0,0,1,0,0)"><path fill="#ffffff" stroke="none" id="_3DED9E62-C0A0-4A12-9432-E642AC170752?shapeType=BACKGROUND" paint-order="stroke fill markers" d=" M 2 0 L 152 0 L 152 0 A 2 2 0 0 1 154 2 L 154 100 L 154 100 A 2 2 0 0 1 152 102 L 2 102 L 2 102 A 2 2 0 0 1 0 100 L 0 2 L 0 2.0000000000000004 A 2 2 0 0 1 1.9999999999999996 0 Z"/></g><g transform="matrix(1,0,0,1,0,0)"><path fill="none" stroke="#000000" id="_3DED9E62-C0A0-4A12-9432-E642AC170752?shapeType=BORDER&amp;renderType=STROKE" paint-order="fill stroke markers" d=" M 2 0 L 152 0 L 152 0 A 2 2 0 0 1 154 2 L 154 100 L 154 100 A 2 2 0 0 1 152 102 L 2 102 L 2 102 A 2 2 0 0 1 0 100 L 0 2 L 0 2.0000000000000004 A 2 2 0 0 1 1.9999999999999996 0 Z" stroke-miterlimit="10" stroke-width="1.5" stroke-dasharray=""/></g><g><g transform="matrix(0.06,0,0,0.06,9.4,9.4)"><g transform="matrix(1,0,0,1,0,0)"><path fill="#393f44" stroke="none" id="_3DED9E62-C0A0-4A12-9432-E642AC170752undefined" paint-order="stroke fill markers" d=" M 0 0 M 16 445.2101 C 16 440.86867 18.784312 431.12906000000004 22.001325 424.21728 C 35.767643 394.6402 77.282944 359.28049 129 333.08362 C 144.51625 325.22398 157.34689 319.96394 167.80739 317.17416 C 171.93153 316.07426 175.72913 314.41389999999996 176.5251 313.36265 C 178.89361 310.23449999999997 180.91404 302.90781 181.72673 294.5 L 182.5 286.5 L 178.50715 283.45457 C 166.30327 274.14645 154.2837 251.67767 148.03953 226.5 C 145.61086 216.70715 145.05603000000002 215.46246 142.98364 215.1579 C 141.70332000000002 214.96974 138.08302 212.24302 134.93852 209.09852 C 123.23314 197.39314000000002 116.89146000000001 177.37556 121.43982000000001 166.48978 C 123.00204000000001 162.75088 128.15457 159.00970999999998 131.75 159.00374 C 134.44781 158.99974 134.47062 158.60296 132.91375 138.78796 C 130.92658 113.4962 134.27903 92.26542699999999 143.13217 74.075676 C 152.23162 55.379835 167.56889 42.88208 189.04934 36.659507000000005 C 210.20334 30.531504000000005 237.79666 30.531504000000005 258.95065999999997 36.659507000000005 C 300.04166 48.562968000000005 318.95842 83.80634 314.95504999999997 141 C 314.31982999999997 150.075 313.62402 157.78816 313.4088 158.14035 C 313.19359 158.49254000000002 314.57532 159.07295000000002 316.47931 159.43014000000002 C 328.92867 161.76565000000002 330.98619 177.01772000000003 321.49638 196.62092 C 316.90319 206.10912000000002 309.35724 214.50797 304.81732 215.18517000000003 C 303.02259 215.45289000000002 302.2931 217.14618000000002 299.94277999999997 226.50000000000003 C 296.65948 239.56693 294.47402 245.30522000000002 287.94764 257.99534000000006 C 282.49071999999995 268.60596000000004 273.03466 281.10922000000005 268.10756999999995 284.2288300000001 L 264.87062 286.27832000000006 L 265.51815999999997 292.88916000000006 C 266.34490999999997 301.32961000000006 268.63948999999997 309.8706000000001 270.87735999999995 312.83742000000007 C 272.06735 314.4150200000001 275.00244999999995 315.78963000000005 280.0630699999999 317.13941000000005 C 291.06929999999994 320.0750300000001 303.61700999999994 325.27420000000006 320.99999999999994 334.10171 C 369.81470999999993 358.89104000000003 410.84810999999996 393.75797 425.03216 422.5 C 429.06985999999995 430.68183 432 440.23198 432 445.2101 L 432 448 L 224 448 L 16 448 L 16 445.2101 Z"/></g></g></g><g transform="matrix(1,0,0,1,4.039999999999992,13.680000000000007)"><g transform="matrix(0.04,0,0,0.04,63.36,69.12)"><g transform="matrix(1,0,0,1,0,0)"><path fill="none" stroke="none"/></g><g transform="matrix(1,0,0,1,0,0)"><path fill="none" stroke="none"/></g></g></g><g transform="matrix(1,0,0,1,60.75,43.5)"><text fill="#000000" stroke="none" font-family="Open Sans" font-size="12pt" font-style="normal" font-weight="normal" text-decoration="normal" x="16.25" y="12" text-anchor="middle" dominant-baseline="alphabetic">Task</text></g></g><g id="_2061915A-3F3F-4811-BEB7-EE6B7169717E" bpmn2nodeid="_2061915A-3F3F-4811-BEB7-EE6B7169717E" transform="matrix(1,0,0,1,865,226)"><g><path fill="none" stroke="none"/></g><g transform="matrix(1,0,0,1,0,0)"><path fill="#ffffff" stroke="none" id="_2061915A-3F3F-4811-BEB7-EE6B7169717E?shapeType=BACKGROUND" paint-order="stroke fill markers" d=" M 2 0 L 152 0 L 152 0 A 2 2 0 0 1 154 2 L 154 100 L 154 100 A 2 2 0 0 1 152 102 L 2 102 L 2 102 A 2 2 0 0 1 0 100 L 0 2 L 0 2.0000000000000004 A 2 2 0 0 1 1.9999999999999996 0 Z"/></g><g transform="matrix(1,0,0,1,0,0)"><path fill="none" stroke="#000000" id="_2061915A-3F3F-4811-BEB7-EE6B7169717E?shapeType=BORDER&amp;renderType=STROKE" paint-order="fill stroke markers" d=" M 2 0 L 152 0 L 152 0 A 2 2 0 0 1 154 2 L 154 100 L 154 100 A 2 2 0 0 1 152 102 L 2 102 L 2 102 A 2 2 0 0 1 0 100 L 0 2 L 0 2.0000000000000004 A 2 2 0 0 1 1.9999999999999996 0 Z" stroke-miterlimit="10" stroke-width="1.5" stroke-dasharray=""/></g><g><g transform="matrix(0.06,0,0,0.06,9.4,9.4)"><g transform="matrix(1,0,0,1,0,0)"><path fill="#393f44" stroke="none" id="_2061915A-3F3F-4811-BEB7-EE6B7169717Eundefined" paint-order="stroke fill markers" d=" M 0 0 M 197.3 130.2 C 194.4 127.29999999999998 189.60000000000002 127.29999999999998 186.70000000000002 130.2 L 130.20000000000002 186.7 C 127.30000000000001 189.6 127.30000000000001 194.39999999999998 130.20000000000002 197.29999999999998 L 186.70000000000002 253.79999999999998 C 188.10000000000002 255.29999999999998 190.10000000000002 255.99999999999997 192.00000000000003 255.99999999999997 C 193.90000000000003 255.99999999999997 195.90000000000003 255.29999999999998 197.30000000000004 253.69999999999996 C 200.20000000000005 250.79999999999995 200.20000000000005 245.99999999999997 197.30000000000004 243.09999999999997 L 146.2 192 L 197.29999999999998 140.8 C 200.2 137.9 200.2 133.1 197.3 130.2 Z"/></g><g transform="matrix(1,0,0,1,0,0)"><path fill="#393f44" stroke="none" id="_2061915A-3F3F-4811-BEB7-EE6B7169717Eundefined" paint-order="stroke fill markers" d=" M 0 0 M 261.3 130.2 C 258.40000000000003 127.29999999999998 253.60000000000002 127.29999999999998 250.70000000000002 130.2 C 247.8 133.1 247.8 137.89999999999998 250.70000000000002 140.79999999999998 L 301.8 191.89999999999998 L 250.7 243 C 247.79999999999998 245.9 247.79999999999998 250.7 250.7 253.6 C 252.1 255.29999999999998 254.1 256 256 256 C 257.9 256 259.9 255.3 261.3 253.8 L 317.8 197.3 C 320.7 194.4 320.7 189.60000000000002 317.8 186.70000000000002 L 261.3 130.2 Z"/></g><g transform="matrix(1,0,0,1,0,0)"><path fill="#393f44" stroke="none" id="_2061915A-3F3F-4811-BEB7-EE6B7169717Eundefined" paint-order="stroke fill markers" d=" M 0 0 M 400 32 C 400 32 152.8 32 128 32 C 62 32 64 96 64 96 L 64 288 L 1 288 C 1 288 -4 416 78 416 L 320 416 C 368 416 384 368 384 336 C 384 314.2 384 224.4 384 160 L 448 160 L 448 96 C 448 96 449 32 400 32 Z M 0 0 M 78 383.9 C 68.5 383.9 61.6 381.09999999999997 55.5 374.9 C 43.4 362.4 37.5 339.59999999999997 34.9 320 L 256.9 320 C 257.09999999999997 322.7 257.29999999999995 325.4 257.59999999999997 328.2 C 259.99999999999994 351.59999999999997 264.7 370.09999999999997 271.9 383.9 L 78 383.9 L 78 383.9 Z M 0 0 M 352 336 C 352 345.9 349.6 360.3 342.9 371 C 337.2 380.1 330.4 384 320 384 C 285 384 288 288 288 288 L 96 288 L 96 96 L 96 95.9 L 96 95.10000000000001 C 96 90.60000000000001 97.6 78.30000000000001 104.7 71.20000000000002 C 106.5 69.40000000000002 111.9 64.00000000000001 128 64.00000000000001 L 356.5 64.00000000000001 C 354.4 72.80000000000001 352.8 81.80000000000001 352.2 89.9 C 352.2 90.5 352.09999999999997 91.10000000000001 352.09999999999997 91.7 C 352.09999999999997 92 352.09999999999997 92.3 352.09999999999997 92.60000000000001 C 352 94.8 352 96 352 96 L 352 160 L 352 336 Z"/></g></g></g><g transform="matrix(1,0,0,1,60.75,43.5)"><text fill="#000000" stroke="none" font-family="Open Sans" font-size="12pt" font-style="normal" font-weight="normal" text-decoration="normal" x="16.25" y="12" text-anchor="middle" dominant-baseline="alphabetic">Task</text></g></g><g id="_08648009-8141-41A4-9C6A-FE13B2441E9F" bpmn2nodeid="_08648009-8141-41A4-9C6A-FE13B2441E9F"><g><path fill="none" stroke="#000000" paint-order="fill stroke markers" d=" M 785 277 L 850 277" stroke-miterlimit="10" stroke-dasharray=""/></g><g transform="matrix(1,0,0,1,785,277)"/><g transform="matrix(6.123233995736766e-17,1,-1,6.123233995736766e-17,865,272)"><path fill="#000000" stroke="#000000" paint-order="fill stroke markers" d=" M 10 15 L 0 15 L 5 0 Z" stroke-miterlimit="10" stroke-dasharray=""/></g><g transform="matrix(1,0,0,1,785,267)"/></g><g id="_353649A6-0FFC-423B-A515-617BDCB18C40" bpmn2nodeid="_353649A6-0FFC-423B-A515-617BDCB18C40"><g><path fill="none" stroke="#000000" paint-order="fill stroke markers" d=" M 1019 277 L 1084 277" stroke-miterlimit="10" stroke-dasharray=""/></g><g transform="matrix(1,0,0,1,1019,277)"/><g transform="matrix(6.123233995736766e-17,1,-1,6.123233995736766e-17,1099,272)"><path fill="#000000" stroke="#000000" paint-order="fill stroke markers" d=" M 10 15 L 0 15 L 5 0 Z" stroke-miterlimit="10" stroke-dasharray=""/></g><g transform="matrix(1,0,0,1,1019,267)"/></g><g id="_4F454459-754A-4805-816B-3D7E8D7A5430" bpmn2nodeid="_4F454459-754A-4805-816B-3D7E8D7A5430"><g><path fill="none" stroke="#000000" paint-order="fill stroke markers" d=" M 139 166.54545454545456 L 162.06160190298445 168.64196380936224" stroke-miterlimit="10" stroke-dasharray=""/></g><g transform="matrix(1,0,0,1,139,166.54545454545456)"/><g transform="matrix(-0.09053574604251739,0.995893206467704,-0.995893206467704,-0.09053574604251739,177.4526787302126,165.0205339676615)"><path fill="#000000" stroke="#000000" paint-order="fill stroke markers" d=" M 10 15 L 0 15 L 5 0 Z" stroke-miterlimit="10" stroke-dasharray=""/></g><g transform="matrix(1,0,0,1,139.9053574604252,158.31379520805024)"/></g><g id="_8464286D-4173-403A-8491-7A529AE0B43D" bpmn2nodeid="_8464286D-4173-403A-8491-7A529AE0B43D"><g><path fill="none" stroke="#000000" paint-order="fill stroke markers" d=" M 331 165.51456310679612 L 342.02538550145647 164.87230764069184" stroke-miterlimit="10" stroke-dasharray=""/></g><g transform="matrix(1,0,0,1,331,165.51456310679612)"/><g transform="matrix(0.05815384271278965,0.9983076332362365,-0.9983076332362365,0.05815384271278965,356.709230786436,159.0084618338188)"><path fill="#000000" stroke="#000000" paint-order="fill stroke markers" d=" M 10 15 L 0 15 L 5 0 Z" stroke-miterlimit="10" stroke-dasharray=""/></g><g transform="matrix(1,0,0,1,331.5815384271279,154.7742052210357)"/></g><g id="_52D82C66-4BB5-4053-AD5A-2F349E88AF5E" bpmn2nodeid="_52D82C66-4BB5-4053-AD5A-2F349E88AF5E"><g><path fill="none" stroke="#000000" paint-order="fill stroke markers" d=" M 511 164 L 540 164" stroke-miterlimit="10" stroke-dasharray=""/></g><g transform="matrix(1,0,0,1,511,164)"/><g transform="matrix(6.123233995736766e-17,1,-1,6.123233995736766e-17,555,159)"><path fill="#000000" stroke="#000000" paint-order="fill stroke markers" d=" M 10 15 L 0 15 L 5 0 Z" stroke-miterlimit="10" stroke-dasharray=""/></g><g transform="matrix(1,0,0,1,511,154)"/></g><g transform="matrix(1,0,0,1,555,136)"/><g transform="matrix(1,0,0,1,1099,249)"/><g transform="matrix(1,0,0,1,83,136)"/><g transform="matrix(1,0,0,1,729,249)"/><g transform="matrix(1,0,0,1,177,119)"/><g transform="matrix(1,0,0,1,865,226)"/><g transform="matrix(1,0,0,1,357,113)"/></g></g></svg>